<svg version="1.1" xmlns="http://www.w3.org/2000/svg" xmlns:xlink="http://www.w3.org/1999/xlink" width="48" height="48"><defs><linearGradient x1="14.22989" y1="16.00627" x2="38.01275" y2="36.23637" gradientUnits="userSpaceOnUse" id="color-1"><stop offset="0" stop-color="#000000" stop-opacity="0.39"></stop><stop offset="1" stop-color="#000000" stop-opacity="0"></stop></linearGradient><filter id="dropshadow-base"><feColorMatrix type="matrix" values="0 0 0 0 0  0 0 0 0 0  0 0 0 0 0  0 0 0 .8 0"></feColorMatrix> <feOffset dx="0" dy="1"></feOffset> <feGaussianBlur stdDeviation="1"></feGaussianBlur> <feComposite in="SourceGraphic"></feComposite></filter><filter id="dropshadow-banner" x="-10%" y="-10%" width="120%" height="130%"><feColorMatrix type="matrix" values="0 0 0 0 0  0 0 0 0 0  0 0 0 0 0  0 0 0 .4 0"></feColorMatrix> <feOffset dx="0" dy="1"></feOffset> <feGaussianBlur stdDeviation="0.5"></feGaussianBlur> <feComposite in="SourceGraphic"></feComposite></filter></defs><g fill="none" fill-rule="nonzero" stroke="none" stroke-width="none" stroke-linecap="butt" stroke-linejoin="miter" stroke-miterlimit="10" stroke-dasharray="" stroke-dashoffset="0" font-family="none" font-weight="none" font-size="none" text-anchor="none" style="mix-blend-mode: normal"><path d="M2,24c0,-12.15026 9.84974,-22 22,-22c12.15026,0 22,9.84974 22,22c0,12.15026 -9.84974,22 -22,22c-12.15026,0 -22,-9.84974 -22,-22z" id="base 1 5" fill="#4051b5" stroke-width="1"></path><path d="M24,31.99373l1.48923,-0.8127l-3.46394,-1.89032v1.62539zM34.45999,32.84347l-6.21735,3.3929l-6.21735,-3.3929l-4.24264,-4.24264v-3.55276l0.35193,0.19205l-3.9047,-3.9047l9.77011,-5.32915l9.77011,5.32915l4.24264,4.24264v7.10554h-1.77638l-1.77638,-1.77638zM24,26.66458l7.99373,-4.36103l1.77638,1.77638v-0.81604l-5.52747,-3.01499l-8.00235,4.36492z" fill="url(#color-1)" stroke-width="1"></path><path d="M17.78266,25.04807v3.55277l6.21734,3.39289l6.21734,-3.39289v-3.55277l-6.21734,3.39289zM24,16.00627l-9.77011,5.32915l9.77011,5.32915l7.99373,-4.36102v6.13741h1.77638v-7.10553z" fill="none" stroke-width="0"></path><path d="M24,28.44096l6.21734,-3.39289v3.55277l-6.21734,3.39289l-6.21734,-3.39289v-3.55277zM33.77011,21.33542v7.10553h-1.77638v-6.13741l-7.99373,4.36102l-9.77011,-5.32915l9.77011,-5.32915z" fill="#ffffff" stroke-width="0"></path><path d="M2,24c0,-12.15026 9.84974,-22 22,-22c12.15026,0 22,9.84974 22,22c0,12.15026 -9.84974,22 -22,22c-12.15026,0 -22,-9.84974 -22,-22z" id="base 1 1 1" fill="none" stroke-width="1"></path><g fill="#000000" stroke-width="1" font-family="Roboto, sans-serif" font-weight="400" font-size="14" text-anchor="start"></g><rect x="2" y="2" width="44" height="22" fill="none" stroke-width="1"></rect><path d="M2,24v-22h44v22z" fill="none" stroke-width="1"></path><path d="M2,24v-22h44v22z" fill="none" stroke-width="1"></path><path d="M2,24v-22h44v22z" fill="none" stroke-width="1"></path><path d="M2,24v-22h44v22z" fill="none" stroke-width="1"></path></g></svg>